<?xml version="1.0" encoding="UTF-8"?><svg id="Layer_1" xmlns="http://www.w3.org/2000/svg" viewBox="0 0 126.01 85.87"><path d="M125.88,70.84c-.28-5.85-1.22-12.4-2.47-18.34C118.53,23.76,96.13-1.48,65.15.07h-.25C30.22.8,5.28,28.15,1.11,61.37c-.59,4.36-.96,9.05-1.1,13.7.01,2.69-.29,5.67,1.36,7.83,1.58,2.2,5.41,2.28,7.23.16,2.02-2.2,1.74-5.48,1.82-8.49.07-4.91.53-9.83,1.27-14.71C15.36,25.03,55.37-1.58,88.17,15.95c19.9,10.4,26.33,34.21,27.29,54.97.26,4.09-.93,10.44,3.91,11.95,7.09,1.5,6.82-7.13,6.51-12.02Z" fill="#e9b5a9"/><path d="M114.16,77.16c.09-6.38-1.07-14.88-2.65-22.04-4.2-22.75-21.7-43.01-46.04-42.55h-.23c-28.69.34-50.22,24.51-52.22,52.29-.53,4.4-.81,8.74-.83,12.9-.34,4,2.19,8.61,6.66,7.29,3.76-1.1,3.7-5.5,3.78-8.79.18-4.35.43-8.72,1.04-13.01,2.09-28.43,34.7-51.72,60.57-34.58,14.86,9.65,18.65,28.58,19.43,45.12-.09,4.73-.38,11.72,6.38,10.71,3.13-.63,4.23-4.46,4.12-7.34Z" fill="#f0b179"/><path d="M96.78,46.42c-3.49-7.44-9.51-13.9-16.91-17.83-23.51-12.81-50.1,7.32-53.73,31.87-.59,3-1.06,6.22-1.35,9.36-.24,4.52-1.01,8.65.56,12.72,1.19,3.14,5.51,4.28,7.73,1.49,2.84-3.74,1.57-8.91,2.04-13.3.86-17.29,12.36-37.73,31.28-35.58,17.49,1.66,25.08,19.85,25.63,35.41.38,4.43-.69,11.22,2.16,14.09l.13.13c1.69,1.6,4.88,1.42,6.5-.39,1.84-2.08,1.7-5.1,1.71-7.73-.19-10.23-1.36-21.07-5.75-30.23Z" fill="#c2c3a1"/><path d="M90.11,68.43c-1.66-15.91-11.05-33.43-29.27-31.34-13.87,1.59-21.92,16.74-23.33,29.5-.36,3.27-1.05,11.75-.23,14.6,1.35,4.7,9.07,4.88,9.66-1.54.6-6.53-.46-11.25,1.45-18.04,3.05-10.82,13.84-20.28,24.09-11.1,5.58,5,7.57,13.33,8.15,20.59.24,3.05-.16,7.25.28,10.14.79,5.13,9.12,5.22,9.72-.25.36-3.25-.18-9.17-.53-12.56Z" fill="#aba1ba"/></svg>