<?xml version="1.0" encoding="UTF-8"?><svg id="Layer_1" xmlns="http://www.w3.org/2000/svg" viewBox="0 0 126.85 85.87"><path d="M126.72,71.89c-.28-5.94-1.23-12.58-2.48-18.61C119.32,24.11,96.77-1.5,65.59.07h-.25C30.42.81,5.31,28.57,1.12,62.27c-.59,4.43-.96,9.19-1.1,13.9.01,2.73-.29,5.76,1.37,7.95,1.59,2.23,5.45,2.31,7.28.16,2.03-2.24,1.75-5.57,1.83-8.62.07-4.99.53-9.97,1.27-14.92C15.46,25.4,55.74-1.6,88.76,16.18c20.03,10.55,26.5,34.71,27.48,55.78.26,4.15-.94,10.6,3.94,12.13,7.13,1.52,6.87-7.23,6.55-12.2Z" fill="#e4b896"/><path d="M114.67,77.18c.09-6.38-1.08-14.89-2.67-22.05-4.22-22.75-21.81-43.01-46.27-42.56h-.23c-28.83.34-50.47,24.52-52.48,52.3-.54,4.4-.81,8.74-.83,12.9-.35,4,2.2,8.61,6.7,7.29,3.77-1.1,3.72-5.5,3.8-8.79.18-4.35.44-8.72,1.04-13.01,2.1-28.43,34.87-51.73,60.87-34.59,14.93,9.65,18.74,28.59,19.53,45.12-.09,4.73-.38,11.73,6.41,10.71,3.14-.63,4.25-4.46,4.14-7.35Z" fill="#c3754d"/><path d="M96.78,46.42c-3.49-7.44-9.51-13.9-16.91-17.83-23.51-12.81-50.1,7.32-53.73,31.87-.59,3-1.06,6.22-1.35,9.36-.24,4.52-1.01,8.65.56,12.72,1.19,3.14,5.51,4.28,7.73,1.49,2.84-3.74,1.57-8.91,2.04-13.3.86-17.29,12.36-37.73,31.28-35.58,17.49,1.66,25.08,19.85,25.63,35.41.38,4.43-.69,11.22,2.16,14.09l.13.13c1.69,1.6,4.88,1.42,6.5-.39,1.84-2.08,1.7-5.1,1.71-7.73-.19-10.23-1.36-21.07-5.75-30.23Z" fill="#eb9f60"/><path d="M90.11,68.43c-1.66-15.91-11.05-33.43-29.27-31.34-13.87,1.59-21.92,16.74-23.33,29.5-.36,3.27-1.05,11.75-.23,14.6,1.35,4.7,9.07,4.88,9.66-1.54.6-6.53-.46-11.25,1.45-18.04,3.05-10.82,13.84-20.28,24.09-11.1,5.58,5,7.57,13.33,8.15,20.59.24,3.05-.16,7.25.28,10.14.79,5.13,9.12,5.22,9.72-.25.36-3.25-.18-9.17-.53-12.56Z" fill="#9db2ad"/></svg>